<svg width="24" height="24" viewBox="0 0 24 24" fill="none" xmlns="http://www.w3.org/2000/svg">
<rect width="24" height="24" fill="white"/>
<g filter="url(#filter0_i_3816_2239)">
<path fill-rule="evenodd" clip-rule="evenodd" d="M5 1C3.93913 1 2.92172 1.42143 2.17157 2.17157C1.42143 2.92172 1 3.93913 1 5V19C1 20.0609 1.42143 21.0783 2.17157 21.8284C2.92172 22.5786 3.93913 23 5 23H19C20.0609 23 21.0783 22.5786 21.8284 21.8284C22.5786 21.0783 23 20.0609 23 19V5C23 3.93913 22.5786 2.92172 21.8284 2.17157C21.0783 1.42143 20.0609 1 19 1H5ZM12.688 16.86C13.21 17.964 13.956 19.543 15.704 19.918C18.292 20.474 20.483 18.119 19.788 15.11C19.373 13.31 18.134 13.063 17.133 12.864C16.643 12.766 16.209 12.68 15.957 12.428C15.421 11.891 16.089 11.093 16.67 10.398C16.918 10.102 17.15 9.824 17.266 9.594C17.649 8.828 17.618 7.02 16.116 6.53C14.234 5.915 13.428 4.976 13.052 4.231C12.386 5.637 13.479 6.423 14.428 7.106C15.03 7.539 15.574 7.93 15.574 8.412C15.574 9.332 14.425 10.257 14.042 10.512C14.042 9.026 11.828 6.465 10.679 6.082C9.759 5.775 8.934 4.766 8.679 4C8.679 4 8.296 5.45 8.679 6.082C9.209 6.957 9.915 7.532 10.576 8.072C11.596 8.905 12.51 9.651 12.51 11.279C12.51 11.279 11.36 11.167 10.051 10.512C9.382 10.178 9.139 9.449 8.873 8.65C8.53 7.62 8.148 6.474 6.763 5.915C5.865 5.553 4.593 6.299 4.082 6.682C7.006 6.682 7.495 7.577 8.286 10.712C8.603 11.972 9.709 12.9 11.36 13.577C7.363 14.191 6.942 13.717 6.942 10.512C6.942 8.98 4.86 9.026 4.86 9.026C4.86 9.026 5.938 10.152 5.626 11.708L5.623 11.72C5.544 12.114 5.247 13.593 6.763 15.11C7.584 15.93 8.736 15.762 9.804 15.605C10.73 15.469 11.594 15.342 12.126 15.875C12.311 16.06 12.482 16.423 12.688 16.859V16.86ZM18.462 16.618C18.462 17.578 17.821 18.357 17.03 18.357C16.24 18.357 15.6 17.578 15.6 16.617C15.6 15.657 16.24 14.879 17.03 14.879C17.82 14.879 18.462 15.658 18.462 16.618Z" fill="#2B7CFF"/>
</g>
<path d="M5 1.0498H19C20.0476 1.0498 21.0522 1.46626 21.793 2.20703C22.5337 2.9478 22.9502 3.9524 22.9502 5V19C22.9502 20.0476 22.5337 21.0522 21.793 21.793C21.0522 22.5337 20.0476 22.9502 19 22.9502H5C3.9524 22.9502 2.9478 22.5337 2.20703 21.793C1.46626 21.0522 1.0498 20.0476 1.0498 19V5C1.0498 3.95239 1.46626 2.9478 2.20703 2.20703C2.9478 1.46626 3.95239 1.0498 5 1.0498ZM8.63086 3.9873L8.62988 3.98828C8.62971 3.98893 8.63018 3.99004 8.62988 3.99121C8.62916 3.99403 8.62733 3.99853 8.62598 4.00391C8.62322 4.01486 8.61916 4.03115 8.61426 4.05176C8.60443 4.09308 8.59125 4.15309 8.57617 4.22656C8.54604 4.37342 8.5095 4.57618 8.48535 4.79883C8.46124 5.0213 8.44949 5.2652 8.46777 5.49414C8.48601 5.72236 8.53518 5.94085 8.63672 6.1084V6.10742C9.17166 6.99058 9.88362 7.57091 10.5439 8.11035C11.0549 8.52763 11.5333 8.91856 11.8848 9.40625C12.2264 9.88039 12.4466 10.4478 12.457 11.2217C12.4238 11.2174 12.3764 11.2117 12.3174 11.2021C12.1903 11.1816 12.0071 11.1473 11.7832 11.0928C11.3348 10.9836 10.7236 10.7932 10.0732 10.4678V10.4668C9.75068 10.3057 9.52885 10.0494 9.35449 9.73145C9.17946 9.41229 9.05425 9.03433 8.9209 8.63379C8.57836 7.60519 8.18969 6.43662 6.78125 5.86816C6.31456 5.68029 5.75732 5.78224 5.25977 5.97266C4.76026 6.16384 4.30993 6.4481 4.05176 6.6416L3.93164 6.73242H4.08203C5.5408 6.73243 6.37555 6.95591 6.94727 7.55566C7.23426 7.85685 7.45867 8.25595 7.66016 8.77734C7.86173 9.29903 8.03959 9.94099 8.2373 10.7246C8.54933 11.9642 9.61026 12.8796 11.1758 13.5527C10.2619 13.6892 9.54582 13.7654 8.98438 13.7578C8.3869 13.7497 7.9717 13.6486 7.68164 13.4365C7.39294 13.2254 7.21969 12.8979 7.11914 12.4189C7.01842 11.939 6.99219 11.3129 6.99219 10.5117C6.99212 10.1163 6.85699 9.81991 6.65332 9.59961C6.45064 9.38038 6.18184 9.23905 5.91699 9.14746C5.65203 9.05586 5.38792 9.01303 5.19043 8.99316C5.09161 8.98323 5.00907 8.97833 4.95117 8.97656C4.92238 8.97569 4.89946 8.97563 4.88379 8.97559H4.85938L4.74512 8.97852L4.82422 9.06055V9.06152L4.83496 9.07227C4.84246 9.08054 4.85407 9.09383 4.86816 9.11035C4.89632 9.14337 4.93633 9.19231 4.9834 9.25586C5.07813 9.38376 5.20179 9.571 5.31543 9.80566C5.54246 10.2747 5.72967 10.9331 5.57715 11.6963L5.57422 11.708V11.71C5.53438 11.9086 5.43902 12.3842 5.5459 13.002C5.65299 13.6205 5.96208 14.3795 6.72754 15.1455C7.14855 15.566 7.65425 15.7319 8.18652 15.7734C8.71725 15.8148 9.27867 15.7326 9.81152 15.6543C10.2757 15.5861 10.7179 15.5215 11.1104 15.5391C11.5017 15.5566 11.837 15.6558 12.0908 15.9102C12.1781 15.9974 12.2644 16.1295 12.3555 16.2969C12.4447 16.4609 12.5366 16.6552 12.6377 16.8691V16.8711L12.6426 16.8818C13.1628 17.982 13.9181 19.5859 15.6934 19.9668C17.0056 20.2487 18.2187 19.7924 19.0146 18.8838C19.8104 17.9754 20.1877 16.6175 19.8369 15.0986C19.6267 14.1871 19.2058 13.664 18.707 13.3447C18.2111 13.0272 17.6417 12.9147 17.1426 12.8154C16.8968 12.7663 16.6686 12.7204 16.4707 12.6562C16.2731 12.5921 16.1101 12.5105 15.9922 12.3926C15.8673 12.2674 15.8139 12.1287 15.8105 11.9805C15.8072 11.8304 15.8551 11.667 15.9395 11.4941C16.1088 11.1473 16.4163 10.7787 16.708 10.4297C16.9545 10.1355 17.1913 9.85256 17.3105 9.61621C17.5078 9.2216 17.5964 8.56556 17.4463 7.94629C17.2955 7.32481 16.9026 6.73399 16.1318 6.48242C14.2616 5.87126 13.4663 4.94032 13.0967 4.20801L13.0508 4.11719L13.0068 4.20996C12.8373 4.56794 12.7782 4.88945 12.8027 5.18164C12.8272 5.47381 12.9347 5.73341 13.0928 5.96777C13.4073 6.43411 13.9259 6.80642 14.3984 7.14648C14.7005 7.36371 14.9837 7.56776 15.1914 7.77637C15.3992 7.98513 15.5244 8.19108 15.5244 8.41211C15.5244 8.85287 15.2472 9.30182 14.9141 9.67773C14.6215 10.0078 14.2911 10.2735 14.0879 10.418C14.0671 10.0571 13.9313 9.6456 13.7227 9.22461C13.4952 8.76571 13.1803 8.29155 12.8301 7.85254C12.4798 7.41345 12.0935 7.00792 11.7217 6.68848C11.3511 6.37011 10.9917 6.13305 10.6953 6.03418C10.246 5.88425 9.81622 5.56193 9.4668 5.17969C9.11744 4.79743 8.85144 4.35938 8.72656 3.98438L8.67383 3.8252L8.63086 3.9873ZM17.0303 14.9287C17.7839 14.9289 18.4121 15.6764 18.4121 16.6182C18.412 17.5599 17.7848 18.3065 17.0303 18.3066C16.2767 18.3066 15.6505 17.5601 15.6504 16.6172C15.6504 15.6752 16.2766 14.9287 17.0303 14.9287Z" stroke="#C1D8EA" stroke-width="0.1"/>
<defs>
<filter id="filter0_i_3816_2239" x="1" y="1" width="24" height="24" filterUnits="userSpaceOnUse" color-interpolation-filters="sRGB">
<feFlood flood-opacity="0" result="BackgroundImageFix"/>
<feBlend mode="normal" in="SourceGraphic" in2="BackgroundImageFix" result="shape"/>
<feColorMatrix in="SourceAlpha" type="matrix" values="0 0 0 0 0 0 0 0 0 0 0 0 0 0 0 0 0 0 127 0" result="hardAlpha"/>
<feOffset dx="2" dy="2"/>
<feGaussianBlur stdDeviation="2.9"/>
<feComposite in2="hardAlpha" operator="arithmetic" k2="-1" k3="1"/>
<feColorMatrix type="matrix" values="0 0 0 0 0 0 0 0 0 0 0 0 0 0 0 0 0 0 0.25 0"/>
<feBlend mode="normal" in2="shape" result="effect1_innerShadow_3816_2239"/>
</filter>
</defs>
</svg>
